<!-- src/assets/solar-power.svg -->
<svg xmlns="http://www.w3.org/2000/svg" viewBox="0 0 24 24" width="24" height="24" fill="currentColor">
  <path d="M12 2C6.477 2 2 6.477 2 12s4.477 10 10 10 10-4.477 10-10S17.523 2 12 2zm0 18c-4.411 0-8-3.589-8-8s3.589-8 8-8 8 3.589 8 8-3.589 8-8 8zm-1-13h2v4h-2V7zm0 6h2v2h-2v-2zm-4.95 1.05L8.05 12.05 7 13.05l-1.05-1.05-1.41 1.41 2.12 2.12zm9.9 0l-2.12-2.12-1.05 1.05 1.05 1.05-2.12 2.12 1.41 1.41 1.05-1.05 1.05 1.05 1.41-1.41zm.708-5.293l-1.416-1.414-2.828 2.828 1.414 1.414 2.83-2.828z"/>
</svg>
